<svg xmlns="http://www.w3.org/2000/svg" viewBox="0 0 1600 900" width="1600" height="900" role="img" aria-label="Amanecer sobre una plantación de café"><title>Amanecer sobre una plantación de café</title><defs><linearGradient id="s" x1="0" y1="0" x2="0" y2="1"><stop offset="0" stop-color="#F7C59F"/><stop offset="1" stop-color="#F2A65A"/></linearGradient></defs><rect x="0" y="0" width="1600" height="900" rx="0" fill="url(#s)" /><line x1="863.0" y1="558.0" x2="800.0" y2="558.0" stroke="#FFD98A" stroke-width="21.6" stroke-linecap="round"/><line x1="880.1" y1="471.9" x2="821.9" y2="447.8" stroke="#FFD98A" stroke-width="21.6" stroke-linecap="round"/><line x1="928.9" y1="398.9" x2="884.4" y2="354.4" stroke="#FFD98A" stroke-width="21.6" stroke-linecap="round"/><line x1="1001.9" y1="350.1" x2="977.8" y2="291.9" stroke="#FFD98A" stroke-width="21.6" stroke-linecap="round"/><line x1="1088.0" y1="333.0" x2="1088.0" y2="270.0" stroke="#FFD98A" stroke-width="21.6" stroke-linecap="round"/><line x1="1174.1" y1="350.1" x2="1198.2" y2="291.9" stroke="#FFD98A" stroke-width="21.6" stroke-linecap="round"/><line x1="1247.1" y1="398.9" x2="1291.6" y2="354.4" stroke="#FFD98A" stroke-width="21.6" stroke-linecap="round"/><line x1="1295.9" y1="471.9" x2="1354.1" y2="447.8" stroke="#FFD98A" stroke-width="21.6" stroke-linecap="round"/><line x1="1313.0" y1="558.0" x2="1376.0" y2="558.0" stroke="#FFD98A" stroke-width="21.6" stroke-linecap="round"/><path d="M908.0 558.0a180.0 180.0 0 0 1 360.0 0z" fill="#FFD98A"/><path d="M0 558.0q400.0-144.0 800.0-18.0t800.0-54.0V900H0z" fill="#B7654A"/><path d="M0 666.0q480.0-126.00000000000001 960.0 0t640.0-36.0V900H0z" fill="#5C7A5A"/><path d="M0 774.0q560.0-90.0 1120.0 0t480.0 0V900H0z" fill="#3F5A40"/><g transform="translate(46.6614422265328 891.0) rotate(0) scale(0.586057306323988)"><g transform="translate(0 0) rotate(0) scale(1)"><path d="M0 0v-200" stroke="#2C4330" stroke-width="8" stroke-linecap="round"/><ellipse cx="34" cy="-54" rx="38" ry="16" fill="#2C4330" transform="rotate(-28 34 -54)"/><ellipse cx="-34" cy="-94" rx="38" ry="16" fill="#2C4330" transform="rotate(28 -34 -94)"/><ellipse cx="34" cy="-134" rx="38" ry="16" fill="#2C4330" transform="rotate(-28 34 -134)"/><ellipse cx="-34" cy="-174" rx="38" ry="16" fill="#2C4330" transform="rotate(28 -34 -174)"/><ellipse cx="34" cy="-209" rx="38" ry="16" fill="#2C4330" transform="rotate(-28 34 -209)"/><path d="M-46 0h92l-12 80h-68z" fill="none"/></g></g><g transform="translate(166.22677809049458 891.0) rotate(0) scale(0.6009800096490486)"><g transform="translate(0 0) rotate(0) scale(1)"><path d="M0 0v-200" stroke="#2C4330" stroke-width="8" stroke-linecap="round"/><ellipse cx="34" cy="-54" rx="38" ry="16" fill="#2C4330" transform="rotate(-28 34 -54)"/><ellipse cx="-34" cy="-94" rx="38" ry="16" fill="#2C4330" transform="rotate(28 -34 -94)"/><ellipse cx="34" cy="-134" rx="38" ry="16" fill="#2C4330" transform="rotate(-28 34 -134)"/><ellipse cx="-34" cy="-174" rx="38" ry="16" fill="#2C4330" transform="rotate(28 -34 -174)"/><ellipse cx="34" cy="-209" rx="38" ry="16" fill="#2C4330" transform="rotate(-28 34 -209)"/><path d="M-46 0h92l-12 80h-68z" fill="none"/></g></g><g transform="translate(290.7430978786079 891.0) rotate(0) scale(0.4663822148099533)"><g transform="translate(0 0) rotate(0) scale(1)"><path d="M0 0v-200" stroke="#2C4330" stroke-width="8" stroke-linecap="round"/><ellipse cx="34" cy="-54" rx="38" ry="16" fill="#2C4330" transform="rotate(-28 34 -54)"/><ellipse cx="-34" cy="-94" rx="38" ry="16" fill="#2C4330" transform="rotate(28 -34 -94)"/><ellipse cx="34" cy="-134" rx="38" ry="16" fill="#2C4330" transform="rotate(-28 34 -134)"/><ellipse cx="-34" cy="-174" rx="38" ry="16" fill="#2C4330" transform="rotate(28 -34 -174)"/><ellipse cx="34" cy="-209" rx="38" ry="16" fill="#2C4330" transform="rotate(-28 34 -209)"/><path d="M-46 0h92l-12 80h-68z" fill="none"/></g></g><g transform="translate(380.526719662195 891.0) rotate(0) scale(0.6593672705241149)"><g transform="translate(0 0) rotate(0) scale(1)"><path d="M0 0v-200" stroke="#2C4330" stroke-width="8" stroke-linecap="round"/><ellipse cx="34" cy="-54" rx="38" ry="16" fill="#2C4330" transform="rotate(-28 34 -54)"/><ellipse cx="-34" cy="-94" rx="38" ry="16" fill="#2C4330" transform="rotate(28 -34 -94)"/><ellipse cx="34" cy="-134" rx="38" ry="16" fill="#2C4330" transform="rotate(-28 34 -134)"/><ellipse cx="-34" cy="-174" rx="38" ry="16" fill="#2C4330" transform="rotate(28 -34 -174)"/><ellipse cx="34" cy="-209" rx="38" ry="16" fill="#2C4330" transform="rotate(-28 34 -209)"/><path d="M-46 0h92l-12 80h-68z" fill="none"/></g></g><g transform="translate(504.65987485883466 891.0) rotate(0) scale(0.508582740261674)"><g transform="translate(0 0) rotate(0) scale(1)"><path d="M0 0v-200" stroke="#2C4330" stroke-width="8" stroke-linecap="round"/><ellipse cx="34" cy="-54" rx="38" ry="16" fill="#2C4330" transform="rotate(-28 34 -54)"/><ellipse cx="-34" cy="-94" rx="38" ry="16" fill="#2C4330" transform="rotate(28 -34 -94)"/><ellipse cx="34" cy="-134" rx="38" ry="16" fill="#2C4330" transform="rotate(-28 34 -134)"/><ellipse cx="-34" cy="-174" rx="38" ry="16" fill="#2C4330" transform="rotate(28 -34 -174)"/><ellipse cx="34" cy="-209" rx="38" ry="16" fill="#2C4330" transform="rotate(-28 34 -209)"/><path d="M-46 0h92l-12 80h-68z" fill="none"/></g></g><g transform="translate(648.3972219918471 891.0) rotate(0) scale(0.567565876880612)"><g transform="translate(0 0) rotate(0) scale(1)"><path d="M0 0v-200" stroke="#2C4330" stroke-width="8" stroke-linecap="round"/><ellipse cx="34" cy="-54" rx="38" ry="16" fill="#2C4330" transform="rotate(-28 34 -54)"/><ellipse cx="-34" cy="-94" rx="38" ry="16" fill="#2C4330" transform="rotate(28 -34 -94)"/><ellipse cx="34" cy="-134" rx="38" ry="16" fill="#2C4330" transform="rotate(-28 34 -134)"/><ellipse cx="-34" cy="-174" rx="38" ry="16" fill="#2C4330" transform="rotate(28 -34 -174)"/><ellipse cx="34" cy="-209" rx="38" ry="16" fill="#2C4330" transform="rotate(-28 34 -209)"/><path d="M-46 0h92l-12 80h-68z" fill="none"/></g></g><g transform="translate(756.3156009081184 891.0) rotate(0) scale(0.5690883021748337)"><g transform="translate(0 0) rotate(0) scale(1)"><path d="M0 0v-200" stroke="#2C4330" stroke-width="8" stroke-linecap="round"/><ellipse cx="34" cy="-54" rx="38" ry="16" fill="#2C4330" transform="rotate(-28 34 -54)"/><ellipse cx="-34" cy="-94" rx="38" ry="16" fill="#2C4330" transform="rotate(28 -34 -94)"/><ellipse cx="34" cy="-134" rx="38" ry="16" fill="#2C4330" transform="rotate(-28 34 -134)"/><ellipse cx="-34" cy="-174" rx="38" ry="16" fill="#2C4330" transform="rotate(28 -34 -174)"/><ellipse cx="34" cy="-209" rx="38" ry="16" fill="#2C4330" transform="rotate(-28 34 -209)"/><path d="M-46 0h92l-12 80h-68z" fill="none"/></g></g><g transform="translate(862.7055827646236 891.0) rotate(0) scale(0.487654106005881)"><g transform="translate(0 0) rotate(0) scale(1)"><path d="M0 0v-200" stroke="#2C4330" stroke-width="8" stroke-linecap="round"/><ellipse cx="34" cy="-54" rx="38" ry="16" fill="#2C4330" transform="rotate(-28 34 -54)"/><ellipse cx="-34" cy="-94" rx="38" ry="16" fill="#2C4330" transform="rotate(28 -34 -94)"/><ellipse cx="34" cy="-134" rx="38" ry="16" fill="#2C4330" transform="rotate(-28 34 -134)"/><ellipse cx="-34" cy="-174" rx="38" ry="16" fill="#2C4330" transform="rotate(28 -34 -174)"/><ellipse cx="34" cy="-209" rx="38" ry="16" fill="#2C4330" transform="rotate(-28 34 -209)"/><path d="M-46 0h92l-12 80h-68z" fill="none"/></g></g><g transform="translate(976.822997759979 891.0) rotate(0) scale(0.6670113267858242)"><g transform="translate(0 0) rotate(0) scale(1)"><path d="M0 0v-200" stroke="#2C4330" stroke-width="8" stroke-linecap="round"/><ellipse cx="34" cy="-54" rx="38" ry="16" fill="#2C4330" transform="rotate(-28 34 -54)"/><ellipse cx="-34" cy="-94" rx="38" ry="16" fill="#2C4330" transform="rotate(28 -34 -94)"/><ellipse cx="34" cy="-134" rx="38" ry="16" fill="#2C4330" transform="rotate(-28 34 -134)"/><ellipse cx="-34" cy="-174" rx="38" ry="16" fill="#2C4330" transform="rotate(28 -34 -174)"/><ellipse cx="34" cy="-209" rx="38" ry="16" fill="#2C4330" transform="rotate(-28 34 -209)"/><path d="M-46 0h92l-12 80h-68z" fill="none"/></g></g><g transform="translate(1086.6415341296179 891.0) rotate(0) scale(0.6353129640503725)"><g transform="translate(0 0) rotate(0) scale(1)"><path d="M0 0v-200" stroke="#2C4330" stroke-width="8" stroke-linecap="round"/><ellipse cx="34" cy="-54" rx="38" ry="16" fill="#2C4330" transform="rotate(-28 34 -54)"/><ellipse cx="-34" cy="-94" rx="38" ry="16" fill="#2C4330" transform="rotate(28 -34 -94)"/><ellipse cx="34" cy="-134" rx="38" ry="16" fill="#2C4330" transform="rotate(-28 34 -134)"/><ellipse cx="-34" cy="-174" rx="38" ry="16" fill="#2C4330" transform="rotate(28 -34 -174)"/><ellipse cx="34" cy="-209" rx="38" ry="16" fill="#2C4330" transform="rotate(-28 34 -209)"/><path d="M-46 0h92l-12 80h-68z" fill="none"/></g></g><g transform="translate(1206.8564590147837 891.0) rotate(0) scale(0.46600785955674934)"><g transform="translate(0 0) rotate(0) scale(1)"><path d="M0 0v-200" stroke="#2C4330" stroke-width="8" stroke-linecap="round"/><ellipse cx="34" cy="-54" rx="38" ry="16" fill="#2C4330" transform="rotate(-28 34 -54)"/><ellipse cx="-34" cy="-94" rx="38" ry="16" fill="#2C4330" transform="rotate(28 -34 -94)"/><ellipse cx="34" cy="-134" rx="38" ry="16" fill="#2C4330" transform="rotate(-28 34 -134)"/><ellipse cx="-34" cy="-174" rx="38" ry="16" fill="#2C4330" transform="rotate(28 -34 -174)"/><ellipse cx="34" cy="-209" rx="38" ry="16" fill="#2C4330" transform="rotate(-28 34 -209)"/><path d="M-46 0h92l-12 80h-68z" fill="none"/></g></g><g transform="translate(1324.614924137187 891.0) rotate(0) scale(0.5977748957328294)"><g transform="translate(0 0) rotate(0) scale(1)"><path d="M0 0v-200" stroke="#2C4330" stroke-width="8" stroke-linecap="round"/><ellipse cx="34" cy="-54" rx="38" ry="16" fill="#2C4330" transform="rotate(-28 34 -54)"/><ellipse cx="-34" cy="-94" rx="38" ry="16" fill="#2C4330" transform="rotate(28 -34 -94)"/><ellipse cx="34" cy="-134" rx="38" ry="16" fill="#2C4330" transform="rotate(-28 34 -134)"/><ellipse cx="-34" cy="-174" rx="38" ry="16" fill="#2C4330" transform="rotate(28 -34 -174)"/><ellipse cx="34" cy="-209" rx="38" ry="16" fill="#2C4330" transform="rotate(-28 34 -209)"/><path d="M-46 0h92l-12 80h-68z" fill="none"/></g></g><g transform="translate(1420.6221349520572 891.0) rotate(0) scale(0.4577529378674375)"><g transform="translate(0 0) rotate(0) scale(1)"><path d="M0 0v-200" stroke="#2C4330" stroke-width="8" stroke-linecap="round"/><ellipse cx="34" cy="-54" rx="38" ry="16" fill="#2C4330" transform="rotate(-28 34 -54)"/><ellipse cx="-34" cy="-94" rx="38" ry="16" fill="#2C4330" transform="rotate(28 -34 -94)"/><ellipse cx="34" cy="-134" rx="38" ry="16" fill="#2C4330" transform="rotate(-28 34 -134)"/><ellipse cx="-34" cy="-174" rx="38" ry="16" fill="#2C4330" transform="rotate(28 -34 -174)"/><ellipse cx="34" cy="-209" rx="38" ry="16" fill="#2C4330" transform="rotate(-28 34 -209)"/><path d="M-46 0h92l-12 80h-68z" fill="none"/></g></g><g transform="translate(1557.4782323363006 891.0) rotate(0) scale(0.5681872721663667)"><g transform="translate(0 0) rotate(0) scale(1)"><path d="M0 0v-200" stroke="#2C4330" stroke-width="8" stroke-linecap="round"/><ellipse cx="34" cy="-54" rx="38" ry="16" fill="#2C4330" transform="rotate(-28 34 -54)"/><ellipse cx="-34" cy="-94" rx="38" ry="16" fill="#2C4330" transform="rotate(28 -34 -94)"/><ellipse cx="34" cy="-134" rx="38" ry="16" fill="#2C4330" transform="rotate(-28 34 -134)"/><ellipse cx="-34" cy="-174" rx="38" ry="16" fill="#2C4330" transform="rotate(28 -34 -174)"/><ellipse cx="34" cy="-209" rx="38" ry="16" fill="#2C4330" transform="rotate(-28 34 -209)"/><path d="M-46 0h92l-12 80h-68z" fill="none"/></g></g></svg>
