<svg xmlns="http://www.w3.org/2000/svg" viewBox="0 0 1200 675" width="1200" height="675" role="img" aria-label="Nueva sede de Café Aurora"><title>Nueva sede de Café Aurora</title><defs></defs><rect x="0" y="0" width="1200" height="675" rx="0" fill="#DDE6DA" /><rect x="0" y="560" width="1200" height="115" rx="0" fill="#B9C7B4" /><g transform="translate(600 380) rotate(0) scale(0.9)"><rect x="-300" y="-260" width="600" height="460" rx="0" fill="#F6EDE0" /><rect x="-300" y="-260" width="600" height="70" rx="0" fill="#3B2418" /><text x="0" y="-212" text-anchor="middle" font-family="Georgia,serif" font-size="38" letter-spacing="6" fill="#F6EDE0">CAFÉ AURORA</text><path d="M-300-190h60v50a30 30 0 0 1-60 0z" fill="#5C7A5A"/><path d="M-240-190h60v50a30 30 0 0 1-60 0z" fill="#FFFDF8"/><path d="M-180-190h60v50a30 30 0 0 1-60 0z" fill="#5C7A5A"/><path d="M-120-190h60v50a30 30 0 0 1-60 0z" fill="#FFFDF8"/><path d="M-60-190h60v50a30 30 0 0 1-60 0z" fill="#5C7A5A"/><path d="M0-190h60v50a30 30 0 0 1-60 0z" fill="#FFFDF8"/><path d="M60-190h60v50a30 30 0 0 1-60 0z" fill="#5C7A5A"/><path d="M120-190h60v50a30 30 0 0 1-60 0z" fill="#FFFDF8"/><path d="M180-190h60v50a30 30 0 0 1-60 0z" fill="#5C7A5A"/><path d="M240-190h60v50a30 30 0 0 1-60 0z" fill="#FFFDF8"/><rect x="-250" y="-90" width="270" height="210" rx="8" fill="#BFD9D2" /><rect x="-250" y="-90" width="270" height="210" rx="8" fill="none" stroke="#3B2418" stroke-width="10"/><rect x="-120" y="-90" width="10" height="210" rx="0" fill="#3B2418" /><rect x="80" y="-90" width="150" height="290" rx="8" fill="#3B2418" /><rect x="98" y="-72" width="114" height="150" rx="4" fill="#BFD9D2" /><circle cx="108" cy="80" r="8" fill="#F2A65A" /><rect x="-250" y="120" width="270" height="22" rx="0" fill="#3B2418" /><rect x="-320" y="200" width="640" height="26" rx="0" fill="#00000022" /><g transform="translate(-185 30) rotate(0) scale(0.33)"><circle cx="0" cy="0" r="100" fill="#FFFDF8" /><circle cx="0" cy="0" r="70" fill="#7A4A2E" /></g><g transform="translate(-60 60) rotate(0) scale(0.5)"><g transform="translate(0 0) rotate(0) scale(0.5)"><path d="M-90-130h180l14 290h-208z" fill="#5C7A5A"/><path d="M-90-130h180l-8-46h-164z" fill="#5C7A5A" opacity=".78"/><rect x="-98" y="-140" width="196" height="16" rx="4" fill="#24150E" opacity=".35"/><circle cx="0" cy="30" r="58" fill="#F6EDE0" /><line x1="-32.5" y1="44.0" x2="-41.6" y2="44.0" stroke="#F2A65A" stroke-width="3.1" stroke-linecap="round"/><line x1="-30.0" y1="31.6" x2="-38.4" y2="28.1" stroke="#F2A65A" stroke-width="3.1" stroke-linecap="round"/><line x1="-23.0" y1="21.0" x2="-29.4" y2="14.6" stroke="#F2A65A" stroke-width="3.1" stroke-linecap="round"/><line x1="-12.4" y1="14.0" x2="-15.9" y2="5.6" stroke="#F2A65A" stroke-width="3.1" stroke-linecap="round"/><line x1="-0.0" y1="11.5" x2="-0.0" y2="2.4" stroke="#F2A65A" stroke-width="3.1" stroke-linecap="round"/><line x1="12.4" y1="14.0" x2="15.9" y2="5.6" stroke="#F2A65A" stroke-width="3.1" stroke-linecap="round"/><line x1="23.0" y1="21.0" x2="29.4" y2="14.6" stroke="#F2A65A" stroke-width="3.1" stroke-linecap="round"/><line x1="30.0" y1="31.6" x2="38.4" y2="28.1" stroke="#F2A65A" stroke-width="3.1" stroke-linecap="round"/><line x1="32.5" y1="44.0" x2="41.6" y2="44.0" stroke="#F2A65A" stroke-width="3.1" stroke-linecap="round"/><path d="M-26 44a26 26 0 0 1 52 0z" fill="#F2A65A"/><rect x="-34" y="52" width="68" height="6" rx="3" fill="#3B2418"/></g></g></g><g transform="translate(150 560) rotate(0) scale(0.9)"><path d="M0 0v-200" stroke="#5C7A5A" stroke-width="8" stroke-linecap="round"/><ellipse cx="34" cy="-54" rx="38" ry="16" fill="#5C7A5A" transform="rotate(-28 34 -54)"/><ellipse cx="-34" cy="-94" rx="38" ry="16" fill="#5C7A5A" transform="rotate(28 -34 -94)"/><ellipse cx="34" cy="-134" rx="38" ry="16" fill="#5C7A5A" transform="rotate(-28 34 -134)"/><ellipse cx="-34" cy="-174" rx="38" ry="16" fill="#5C7A5A" transform="rotate(28 -34 -174)"/><ellipse cx="34" cy="-209" rx="38" ry="16" fill="#5C7A5A" transform="rotate(-28 34 -209)"/><path d="M-46 0h92l-12 80h-68z" fill="#C8643C"/></g><g transform="translate(1050 560) rotate(0) scale(0.8)"><path d="M0 0v-200" stroke="#5C7A5A" stroke-width="8" stroke-linecap="round"/><ellipse cx="34" cy="-54" rx="38" ry="16" fill="#5C7A5A" transform="rotate(-28 34 -54)"/><ellipse cx="-34" cy="-94" rx="38" ry="16" fill="#5C7A5A" transform="rotate(28 -34 -94)"/><ellipse cx="34" cy="-134" rx="38" ry="16" fill="#5C7A5A" transform="rotate(-28 34 -134)"/><ellipse cx="-34" cy="-174" rx="38" ry="16" fill="#5C7A5A" transform="rotate(28 -34 -174)"/><ellipse cx="34" cy="-209" rx="38" ry="16" fill="#5C7A5A" transform="rotate(-28 34 -209)"/><path d="M-46 0h92l-12 80h-68z" fill="#C8643C"/></g></svg>
